<svg width="25" height="26" viewBox="0 0 25 26" fill="none" xmlns="http://www.w3.org/2000/svg">
<path d="M5.07813 11.3033H1.17188C0.524659 11.3033 0 11.828 0 12.4752V24.194C0 24.8412 0.524659 25.3658 1.17188 25.3658H5.07813C5.72535 25.3658 6.25 24.8412 6.25 24.194V12.4752C6.25 11.828 5.72535 11.3033 5.07813 11.3033ZM3.125 23.4127C2.47778 23.4127 1.95313 22.8881 1.95313 22.2408C1.95313 21.5936 2.47778 21.069 3.125 21.069C3.77222 21.069 4.29688 21.5936 4.29688 22.2408C4.29688 22.8881 3.77222 23.4127 3.125 23.4127ZM18.75 4.34299C18.75 6.41409 17.4819 7.57581 17.1252 8.95959H22.0921C23.7228 8.95959 24.9924 10.3144 25 11.7964C25.0041 12.6723 24.6315 13.6152 24.0508 14.1986L24.0454 14.204C24.5257 15.3435 24.4476 16.9402 23.5909 18.0843C24.0148 19.3487 23.5876 20.9019 22.791 21.7345C23.0009 22.5938 22.9006 23.3251 22.4908 23.9138C21.4943 25.3457 19.0242 25.3658 16.9355 25.3658L16.7966 25.3658C14.4388 25.365 12.5092 24.5065 10.9587 23.8167C10.1795 23.4701 9.1608 23.041 8.38785 23.0268C8.06851 23.0209 7.81251 22.7603 7.81251 22.4409V12.003C7.81251 11.8467 7.8751 11.6968 7.98624 11.5869C9.92051 9.67556 10.7523 7.65198 12.3377 6.06389C13.0605 5.33967 13.3234 4.24573 13.5775 3.18782C13.7947 2.28445 14.2489 0.365845 15.2344 0.365845C16.4063 0.365845 18.75 0.75647 18.75 4.34299Z" fill="#E9243B"/>
</svg>
