<svg width="39" height="25" viewBox="0 0 39 25" fill="none" xmlns="http://www.w3.org/2000/svg">
<path d="M38.4806 12.4881C38.4806 12.6739 38.3787 12.8537 38.2109 12.9376L32.8706 16.1442C32.7867 16.1921 32.7028 16.2281 32.6009 16.2281C32.517 16.2281 32.4151 16.2101 32.3312 16.1621C32.1634 16.0602 32.0615 15.8924 32.0615 15.6946V13.5609H17.7548C19.2712 15.9344 20.1822 19.9681 21.9263 19.9681H23.5266V18.3618C23.5266 18.0621 23.7604 17.8284 24.0601 17.8284H29.4003C29.7 17.8284 29.9338 18.0621 29.9338 18.3618V23.7021C29.9338 24.0017 29.7 24.2355 29.4003 24.2355H24.0601C23.7604 24.2355 23.5266 24.0017 23.5266 23.7021V22.1018H21.9263C17.4072 22.1018 17.0656 13.5609 14.4524 13.5609H8.44079C7.95531 15.395 6.2891 16.7675 4.30522 16.7675C1.94975 16.7615 0.0317993 14.8435 0.0317993 12.4881C0.0317993 10.1326 1.94975 8.21465 4.30522 8.21465C6.2891 8.21465 7.96131 9.58118 8.44079 11.4212C10.7843 11.4212 11.072 11.9906 12.912 7.80109C15.3154 2.46081 16.3943 2.88036 19.439 2.88036C19.8885 1.6277 21.0573 0.746643 22.4598 0.746643C24.2279 0.746643 25.6663 2.17911 25.6663 3.95321C25.6663 5.72731 24.2339 7.15978 22.4598 7.15978C21.0573 7.15978 19.8885 6.27273 19.439 5.02606H17.6529C15.9088 5.02606 14.9978 9.06573 13.4814 11.4332H32.0675V9.29948C32.0675 9.1017 32.1694 8.93388 32.3372 8.83198C32.505 8.73009 32.7208 8.74808 32.8706 8.84997L38.2109 12.0565C38.3787 12.1225 38.4806 12.3023 38.4806 12.4881Z" fill="#E9243B"/>
</svg>
