<svg width="32" height="17" viewBox="0 0 32 17" fill="none" xmlns="http://www.w3.org/2000/svg">
<path d="M4.44573 16.032C4.27986 16.032 4.1743 15.9566 4.12906 15.8059L0.125501 0.492797L0.102882 0.40232C0.102882 0.266606 0.185818 0.198749 0.351691 0.198749H3.15645C3.30724 0.198749 3.40525 0.274146 3.45049 0.424939L5.5993 9.63087C5.61438 9.69119 5.63699 9.72134 5.66715 9.72134C5.69731 9.72134 5.71993 9.69119 5.73501 9.63087L7.81596 0.447559C7.8612 0.281686 7.95921 0.198749 8.11 0.198749H10.8469C11.0128 0.198749 11.1183 0.274146 11.1636 0.424939L13.4255 9.63087C13.4405 9.67611 13.4632 9.70627 13.4933 9.72134C13.5235 9.72134 13.5461 9.69119 13.5612 9.63087L15.6421 0.447559C15.6874 0.281686 15.7854 0.198749 15.9362 0.198749H18.6052C18.8163 0.198749 18.8993 0.296765 18.854 0.492797L15.1445 15.8059C15.0993 15.9566 14.9937 16.032 14.8278 16.032H12.1362C11.9854 16.032 11.8874 15.9566 11.8421 15.8059L9.535 6.01183C9.51992 5.95151 9.4973 5.92135 9.46714 5.92135C9.43699 5.92135 9.41437 5.95151 9.39929 6.01183L7.25048 15.7832C7.22032 15.9491 7.12231 16.032 6.95644 16.032H4.44573ZM25.5888 16.213C24.4126 16.213 23.3797 15.9868 22.49 15.5344C21.6003 15.067 20.9142 14.4186 20.4317 13.5892C19.9492 12.7598 19.7079 11.8023 19.7079 10.7166V5.49159C19.7079 4.40588 19.9492 3.44834 20.4317 2.61898C20.9142 1.78962 21.6003 1.14875 22.49 0.696368C23.3797 0.243988 24.4126 0.0177985 25.5888 0.0177985C26.7499 0.0177985 27.7678 0.236449 28.6424 0.673749C29.5321 1.09597 30.2182 1.70668 30.7007 2.50589C31.1983 3.29001 31.4471 4.20231 31.4471 5.24278C31.4471 5.3785 31.3567 5.46143 31.1757 5.49159L28.5293 5.64993H28.4841C28.3333 5.64993 28.2579 5.56699 28.2579 5.40112C28.2579 4.60191 28.0091 3.96104 27.5114 3.4785C27.0289 2.99597 26.388 2.7547 25.5888 2.7547C24.7745 2.7547 24.1186 2.99597 23.621 3.4785C23.1384 3.96104 22.8972 4.60191 22.8972 5.40112V10.8523C22.8972 11.6364 23.1384 12.2698 23.621 12.7523C24.1186 13.2348 24.7745 13.4761 25.5888 13.4761C26.388 13.4761 27.0289 13.2348 27.5114 12.7523C28.0091 12.2698 28.2579 11.6364 28.2579 10.8523C28.2579 10.6864 28.3483 10.6035 28.5293 10.6035L31.1757 10.7166C31.2511 10.7166 31.3114 10.7392 31.3567 10.7844C31.417 10.8297 31.4471 10.8825 31.4471 10.9428C31.4471 11.9832 31.1983 12.9031 30.7007 13.7023C30.2182 14.5015 29.5321 15.1197 28.6424 15.557C27.7678 15.9943 26.7499 16.213 25.5888 16.213Z" fill="#E9243B"/>
</svg>
