<svg width="34" height="23" viewBox="0 0 34 23" fill="none" xmlns="http://www.w3.org/2000/svg">
<path d="M32.7467 6.87188C23.8722 -1.12038 10.0699 -1.11745 1.19895 6.87188C0.865347 7.17231 0.858835 7.68101 1.18142 7.99266L2.8965 9.64944C3.20405 9.94695 3.69894 9.95329 4.01852 9.66797C11.3277 3.14814 22.617 3.14668 29.9276 9.66797C30.2472 9.95329 30.7421 9.94646 31.0496 9.64944L32.7647 7.99266C33.0868 7.68101 33.0803 7.17231 32.7467 6.87188ZM16.9728 16.4858C15.2021 16.4858 13.7671 17.8831 13.7671 19.6072C13.7671 21.3313 15.2021 22.7286 16.9728 22.7286C18.7435 22.7286 20.1786 21.3313 20.1786 19.6072C20.1786 17.8831 18.7435 16.4858 16.9728 16.4858ZM27.1246 12.409C21.3512 7.43763 12.5879 7.443 6.82106 12.409C6.47544 12.7065 6.46442 13.223 6.79251 13.538L8.51761 15.1958C8.81815 15.4845 9.30202 15.504 9.6221 15.2348C13.8272 11.6954 20.128 11.7032 24.323 15.2348C24.6431 15.504 25.127 15.485 25.4275 15.1958L27.1526 13.538C27.4812 13.223 27.4697 12.706 27.1246 12.409Z" fill="#E9243B"/>
</svg>
