<svg width="28" height="24" viewBox="0 0 28 24" fill="none" xmlns="http://www.w3.org/2000/svg">
<path d="M7.09502 10.1252V14.9647H20.6664V10.1252C20.6664 7.9492 21.8836 6.18006 23.3807 6.18006H24.7378C24.7378 2.91301 22.9142 0.26239 20.6664 0.26239H7.09502C4.84726 0.26239 3.0236 2.91301 3.0236 6.18006H4.38074C5.87784 6.18006 7.09502 7.9492 7.09502 10.1252ZM24.7378 8.15262H23.3807C22.63 8.15262 22.0236 9.03411 22.0236 10.1252V16.0429H5.73788V10.1252C5.73788 9.03411 5.13141 8.15262 4.38074 8.15262H3.0236C1.52651 8.15262 0.309326 9.92176 0.309326 12.0977C0.309326 13.5525 1.53923 14.81 2.34504 15.4942V22.9468C2.34504 23.4893 1.97182 23.9331 2.34504 23.9331H5.05931C5.43253 23.9331 5.73788 23.4893 5.73788 22.9468V21.9605H22.0236V22.9468C22.0236 23.4893 22.3289 23.9331 22.7021 23.9331H25.4164C25.7896 23.9331 25.4164 23.4893 25.4164 22.9468V15.4942C26.2222 14.81 27.4521 13.5525 27.4521 12.0977C27.4521 9.92176 26.2349 8.15262 24.7378 8.15262Z" fill="#E9243B"/>
</svg>
