<svg width="27" height="25" viewBox="0 0 27 25" fill="none" xmlns="http://www.w3.org/2000/svg">
<path d="M8.4623 12.4297H1.14245C0.684635 12.4297 0.310059 12.8042 0.310059 13.262V14.9268C0.310059 15.3846 0.684635 15.7592 1.14245 15.7592H8.54034C9.36753 15.7592 10.1427 16.3263 10.278 17.1431C10.4496 18.1836 9.64846 19.0888 8.63398 19.0888C7.90044 19.0888 7.27614 18.6102 7.05244 17.9495C6.94319 17.6217 6.60503 17.424 6.26167 17.424H4.55526C4.04542 17.424 3.63443 17.8818 3.72807 18.3813C4.17548 20.6755 6.20444 22.4184 8.62878 22.4184C11.5994 22.4184 13.9717 19.8119 13.5815 16.7685C13.2642 14.2505 10.9959 12.4297 8.4623 12.4297ZM1.14245 10.7649H18.6227C21.7286 10.7649 24.1789 7.91392 23.5026 4.6936C23.1072 2.81031 21.5829 1.286 19.6996 0.89061C16.8174 0.287125 14.2318 2.18602 13.722 4.81846C13.6231 5.3179 14.0393 5.77051 14.544 5.77051H16.2504C16.5989 5.77051 16.9319 5.57282 17.0411 5.24506C17.2649 4.58435 17.8891 4.10573 18.6227 4.10573C19.632 4.10573 20.4384 5.01095 20.2667 6.05144C20.1314 6.86823 19.3614 7.4353 18.5291 7.4353H1.14245C0.684635 7.4353 0.310059 7.80987 0.310059 8.26769V9.93247C0.310059 10.3903 0.684635 10.7649 1.14245 10.7649ZM21.1199 12.4297H12.9884C13.9925 13.2933 14.7157 14.4482 15.059 15.7592H21.1199C22.4985 15.7592 23.617 16.8777 23.617 18.2564C23.617 19.635 22.4985 20.7536 21.1199 20.7536C20.1886 20.7536 19.3875 20.2385 18.9557 19.4842C18.8048 19.2241 18.503 19.0888 18.2013 19.0888H16.4429C15.8758 19.0888 15.4544 19.6507 15.6469 20.1865C16.5729 22.8189 19.3146 24.5982 22.3789 23.9479C24.5223 23.4953 26.2859 21.7837 26.7853 19.6455C27.675 15.8373 24.7876 12.4297 21.1199 12.4297Z" fill="#E9243B"/>
</svg>
