<svg width="10" height="10" viewBox="0 0 10 10" fill="none" xmlns="http://www.w3.org/2000/svg">
<path d="M4.66894 0.962906C2.2096 0.962906 0.213623 2.95889 0.213623 5.41822C0.213623 7.87756 2.2096 9.87354 4.66894 9.87354C7.12827 9.87354 9.12425 7.87756 9.12425 5.41822C9.12425 2.95889 7.12827 0.962906 4.66894 0.962906ZM4.49518 6.68353C4.49518 7.16916 4.11648 7.54786 3.63085 7.54786H2.97146C2.49474 7.54786 2.10713 7.16025 2.10713 6.68353V5.49396C2.10713 4.12172 2.40564 3.81431 3.20314 3.34204C3.2566 3.31086 3.31452 3.29749 3.37244 3.29749C3.48828 3.29749 3.59966 3.35541 3.66204 3.46234C3.7556 3.62273 3.70213 3.82767 3.5462 3.92124C3.00711 4.23311 2.81998 4.34895 2.78434 5.15536H3.63531C4.12093 5.15536 4.49964 5.53406 4.49964 6.01969V6.68353H4.49518ZM7.23074 6.68353C7.23074 7.16916 6.85204 7.54786 6.36641 7.54786H5.70257C5.22585 7.54786 4.83824 7.16025 4.83824 6.68353V5.49396C4.83824 4.12172 5.13675 3.81431 5.93425 3.34204C5.98771 3.31086 6.04563 3.29749 6.10355 3.29749C6.21939 3.29749 6.33077 3.35541 6.39315 3.46234C6.48671 3.62273 6.43324 3.82767 6.27731 3.92124C5.73821 4.24202 5.55109 4.35786 5.51545 5.16427H6.36641C6.85204 5.16427 7.23074 5.54297 7.23074 6.0286V6.68353V6.68353Z" fill="#E9243B"/>
</svg>
