<svg width="21" height="21" viewBox="0 0 21 21" fill="none" xmlns="http://www.w3.org/2000/svg">
<path d="M10.4216 0.130371C4.92428 0.130371 0.470215 4.58443 0.470215 10.0818C0.470215 15.5791 4.92428 20.0332 10.4216 20.0332C15.919 20.0332 20.3731 15.5791 20.3731 10.0818C20.3731 4.58443 15.919 0.130371 10.4216 0.130371ZM15.3091 6.9479L13.6759 14.6442C13.5555 15.1899 13.2305 15.3223 12.7771 15.0655L10.2892 13.2317L9.08943 14.3874C8.95701 14.5198 8.84466 14.6322 8.58784 14.6322L8.7644 12.1002L13.375 7.93501C13.5756 7.75846 13.3308 7.65814 13.066 7.8347L7.36799 11.422L4.91224 10.6556C4.37855 10.4871 4.36652 10.1219 5.02459 9.86511L14.6189 6.16543C15.0643 6.00492 15.4535 6.27377 15.3091 6.9479Z" fill="#75787A"/>
</svg>
