<svg width="20" height="21" viewBox="0 0 20 21" fill="none" xmlns="http://www.w3.org/2000/svg">
<path d="M10.0309 0.109375C4.53353 0.109375 0.0794678 4.56344 0.0794678 10.0608C0.0794678 15.5582 4.53353 20.0122 10.0309 20.0122C15.5282 20.0122 19.9823 15.5582 19.9823 10.0608C19.9823 4.56344 15.5282 0.109375 10.0309 0.109375ZM14.9183 6.9269L13.2852 14.6232C13.1648 15.1689 12.8398 15.3013 12.3863 15.0445L9.89847 13.2107L8.69868 14.3664C8.56626 14.4988 8.45391 14.6112 8.1971 14.6112L8.37366 12.0792L12.9842 7.91402C13.1848 7.73746 12.9401 7.63714 12.6752 7.8137L6.97725 11.401L4.52149 10.6346C3.98781 10.4661 3.97577 10.1009 4.63385 9.84411L14.2281 6.14443C14.6735 5.98392 15.0628 6.25277 14.9183 6.9269Z" fill="black"/>
</svg>
