<svg width="20" height="20" viewBox="0 0 20 20" fill="none" xmlns="http://www.w3.org/2000/svg">
<path d="M17.0502 2.04555C16.5571 1.59124 14.5612 0.142858 10.1112 0.123443C10.1112 0.123443 4.86523 -0.191084 2.31018 2.15428C0.888984 3.57547 0.38807 5.66067 0.333708 8.2429C0.279345 10.8251 0.213333 15.6634 4.87688 16.9759H4.88076L4.87688 18.9795C4.87688 18.9795 4.84581 19.7911 5.38167 19.9542C6.02626 20.1561 6.4068 19.5387 7.0242 18.8747C7.36203 18.5097 7.82799 17.9738 8.18135 17.5661C11.3732 17.834 13.8234 17.2205 14.103 17.1312C14.7476 16.9215 18.3938 16.4556 18.984 11.6173C19.5975 6.62367 18.6889 3.47063 17.0502 2.04555ZM17.59 11.2523C17.0891 15.2906 14.1341 15.5469 13.5904 15.7217C13.3575 15.7954 11.2024 16.3313 8.49588 16.1566C8.49588 16.1566 6.47669 18.5912 5.84764 19.2242C5.64184 19.43 5.41662 19.4106 5.4205 19.0028C5.4205 18.7349 5.43604 15.6751 5.43604 15.6751C5.43215 15.6751 5.43215 15.6751 5.43604 15.6751C1.48309 14.58 1.71607 10.4601 1.75879 8.30503C1.8015 6.14994 2.20922 4.38315 3.41297 3.19494C5.57583 1.234 10.0297 1.52522 10.0297 1.52522C13.7924 1.54076 15.5941 2.67461 16.0135 3.05515C17.3997 4.24336 18.1064 7.08575 17.59 11.2523ZM12.1925 8.11476C12.2081 8.4487 11.7072 8.472 11.6916 8.13806C11.6489 7.28379 11.249 6.8683 10.4258 6.8217C10.0918 6.80229 10.1229 6.30138 10.4529 6.32079C11.5363 6.37904 12.1382 7.00033 12.1925 8.11476ZM12.9808 8.55355C13.0196 6.90713 11.9906 5.61796 10.0374 5.47429C9.70739 5.45099 9.74234 4.95007 10.0724 4.97337C12.3246 5.13646 13.5244 6.6858 13.4817 8.5652C13.4778 8.89914 12.973 8.88361 12.9808 8.55355ZM14.8058 9.07387C14.8097 9.40782 14.3049 9.4117 14.3049 9.07776C14.2816 5.91307 12.1731 4.189 9.6142 4.16958C9.28414 4.1657 9.28414 3.66867 9.6142 3.66867C12.476 3.68808 14.7787 5.66456 14.8058 9.07387ZM14.3671 12.8831V12.8909C13.9477 13.6287 13.1633 14.4441 12.3556 14.184L12.3479 14.1723C11.5285 13.9432 9.59867 12.9492 8.37939 11.9784C7.75033 11.4814 7.17564 10.895 6.73297 10.332C6.33302 9.83107 5.92918 9.23696 5.53699 8.52248C4.70991 7.02751 4.5274 6.35962 4.5274 6.35962C4.26724 5.55195 5.07879 4.76757 5.82046 4.3482H5.82822C6.18546 4.16182 6.52717 4.22394 6.75627 4.49964C6.75627 4.49964 7.23777 5.07433 7.44357 5.35779C7.63773 5.62184 7.89789 6.04509 8.0338 6.28196C8.27066 6.70521 8.12311 7.13623 7.89012 7.31485L7.42416 7.68762C7.18729 7.87789 7.21836 8.23125 7.21836 8.23125C7.21836 8.23125 7.90954 10.8445 10.4918 11.5047C10.4918 11.5047 10.8451 11.5357 11.0354 11.2989L11.4082 10.8329C11.5868 10.5999 12.0178 10.4524 12.4411 10.6892C13.0119 11.0115 13.738 11.5124 14.2195 11.9667C14.4913 12.1881 14.5534 12.5259 14.3671 12.8831Z" fill="black"/>
</svg>
