<svg width="21" height="21" viewBox="0 0 21 21" fill="none" xmlns="http://www.w3.org/2000/svg">
<path d="M17.0985 3.00151C15.237 1.13562 12.7581 0.109375 10.1236 0.109375C4.68587 0.109375 0.261045 4.5342 0.261045 9.97194C0.261045 11.709 0.71419 13.4061 1.57605 14.9032L0.176636 20.0122L5.40557 18.6395C6.84498 19.4258 8.46652 19.839 10.1192 19.839H10.1236C15.5569 19.839 20.0795 15.4141 20.0795 9.97639C20.0795 7.34193 18.9599 4.8674 17.0985 3.00151ZM10.1236 18.1774C8.64867 18.1774 7.20483 17.782 5.94757 17.0357L5.64992 16.858L2.54898 17.671L3.37531 14.6456L3.17983 14.3346C2.35795 13.0285 1.92702 11.5224 1.92702 9.97194C1.92702 5.45382 5.60549 1.77535 10.1281 1.77535C12.3183 1.77535 14.3752 2.62833 15.9212 4.17879C17.4672 5.72926 18.4179 7.78619 18.4135 9.97639C18.4135 14.499 14.6417 18.1774 10.1236 18.1774ZM14.6195 12.0378C14.3752 11.9134 13.1624 11.3181 12.9358 11.2381C12.7092 11.1537 12.5448 11.1137 12.3805 11.3625C12.2161 11.6113 11.7452 12.1621 11.5986 12.331C11.4564 12.4953 11.3098 12.5176 11.0654 12.3932C9.61716 11.669 8.66644 11.1004 7.71128 9.46104C7.45805 9.02567 7.96451 9.05677 8.43543 8.11494C8.51539 7.95056 8.47541 7.8084 8.41321 7.68401C8.35102 7.55961 7.85789 6.34678 7.65353 5.85365C7.45361 5.37385 7.24925 5.44049 7.0982 5.43161C6.95604 5.42272 6.79166 5.42272 6.62729 5.42272C6.46291 5.42272 6.19636 5.48492 5.96978 5.72926C5.74321 5.97805 5.10792 6.57336 5.10792 7.78618C5.10792 8.99901 5.992 10.1719 6.11195 10.3362C6.23634 10.5006 7.849 12.9885 10.3235 14.0591C11.8873 14.7344 12.5004 14.7922 13.2823 14.6767C13.7577 14.6056 14.7395 14.0813 14.9438 13.5038C15.1482 12.9263 15.1482 12.4331 15.086 12.331C15.0282 12.2199 14.8639 12.1577 14.6195 12.0378Z" fill="black"/>
</svg>
