<svg width="21" height="21" viewBox="0 0 21 21" fill="none" xmlns="http://www.w3.org/2000/svg">
<path d="M10.2409 4.98163C7.40258 4.98163 5.11316 7.27104 5.11316 10.1094C5.11316 12.9477 7.40258 15.2371 10.2409 15.2371C13.0792 15.2371 15.3687 12.9477 15.3687 10.1094C15.3687 7.27104 13.0792 4.98163 10.2409 4.98163ZM10.2409 13.4431C8.40671 13.4431 6.90721 11.948 6.90721 10.1094C6.90721 8.27071 8.40224 6.77567 10.2409 6.77567C12.0796 6.77567 13.5746 8.27071 13.5746 10.1094C13.5746 11.948 12.0751 13.4431 10.2409 13.4431ZM16.7744 4.77188C16.7744 5.43683 16.2389 5.96791 15.5784 5.96791C14.9135 5.96791 14.3824 5.43237 14.3824 4.77188C14.3824 4.11138 14.9179 3.57585 15.5784 3.57585C16.2389 3.57585 16.7744 4.11138 16.7744 4.77188ZM20.1706 5.98576C20.0948 4.38361 19.7288 2.96445 18.5551 1.79519C17.3858 0.625943 15.9667 0.259994 14.3645 0.179664C12.7133 0.0859453 7.76406 0.0859453 6.11283 0.179664C4.51515 0.255531 3.09598 0.62148 1.92227 1.79073C0.748556 2.95998 0.387069 4.37915 0.306739 5.98129C0.213021 7.63253 0.213021 12.5818 0.306739 14.233C0.382607 15.8351 0.748556 17.2543 1.92227 18.4236C3.09598 19.5928 4.51069 19.9588 6.11283 20.0391C7.76406 20.1328 12.7133 20.1328 14.3645 20.0391C15.9667 19.9632 17.3858 19.5973 18.5551 18.4236C19.7243 17.2543 20.0903 15.8351 20.1706 14.233C20.2643 12.5818 20.2643 7.63699 20.1706 5.98576ZM18.0374 16.0047C17.6893 16.8794 17.0154 17.5533 16.1363 17.9059C14.8197 18.428 11.6958 18.3075 10.2409 18.3075C8.78604 18.3075 5.65763 18.4236 4.34557 17.9059C3.47086 17.5578 2.79698 16.8839 2.44442 16.0047C1.92227 14.6882 2.04277 11.5642 2.04277 10.1094C2.04277 8.6545 1.92673 5.52609 2.44442 4.21403C2.79251 3.33932 3.4664 2.66544 4.34557 2.31288C5.66209 1.79073 8.78604 1.91123 10.2409 1.91123C11.6958 1.91123 14.8242 1.79519 16.1363 2.31288C17.011 2.66098 17.6848 3.33486 18.0374 4.21403C18.5596 5.53055 18.4391 8.6545 18.4391 10.1094C18.4391 11.5642 18.5596 14.6927 18.0374 16.0047Z" fill="black"/>
</svg>
