<svg width="20" height="21" viewBox="0 0 20 21" fill="none" xmlns="http://www.w3.org/2000/svg">
<path d="M17.441 2.07607C16.9478 1.62175 14.952 0.173376 10.502 0.153961C10.502 0.153961 5.25597 -0.160567 2.70093 2.1848C1.27973 3.60599 0.778817 5.69119 0.724455 8.27342C0.670092 10.8556 0.60408 15.6939 5.26762 17.0064H5.27151L5.26762 19.0101C5.26762 19.0101 5.23656 19.8216 5.77242 19.9847C6.41701 20.1866 6.79755 19.5692 7.41495 18.9052C7.75278 18.5402 8.21874 18.0043 8.5721 17.5966C11.764 17.8646 14.2142 17.251 14.4938 17.1617C15.1383 16.952 18.7845 16.4861 19.3747 11.6478C19.9883 6.65419 19.0796 3.50115 17.441 2.07607ZM17.9807 11.2828C17.4798 15.3212 14.5248 15.5774 13.9812 15.7522C13.7482 15.826 11.5931 16.3618 8.88663 16.1871C8.88663 16.1871 6.86744 18.6217 6.23839 19.2547C6.03258 19.4605 5.80737 19.4411 5.81125 19.0334C5.81125 18.7654 5.82678 15.7056 5.82678 15.7056C5.8229 15.7056 5.8229 15.7056 5.82678 15.7056C1.87384 14.6106 2.10682 10.4906 2.14953 8.33555C2.19225 6.18046 2.59997 4.41367 3.80371 3.22545C5.96657 1.26451 10.4204 1.55574 10.4204 1.55574C14.1831 1.57127 15.9848 2.70512 16.4042 3.08566C17.7905 4.27388 18.4972 7.11627 17.9807 11.2828ZM12.5833 8.14528C12.5988 8.47922 12.0979 8.50252 12.0824 8.16858C12.0397 7.31431 11.6397 6.89882 10.8165 6.85222C10.4826 6.83281 10.5136 6.33189 10.8437 6.35131C11.9271 6.40955 12.5289 7.03084 12.5833 8.14528ZM13.3716 8.58406C13.4104 6.93765 12.3814 5.64848 10.4282 5.5048C10.0981 5.48151 10.1331 4.98059 10.4631 5.00389C12.7153 5.16698 13.9152 6.71632 13.8725 8.59571C13.8686 8.92966 13.3638 8.91412 13.3716 8.58406ZM15.1966 9.10439C15.2005 9.43833 14.6957 9.44222 14.6957 9.10827C14.6724 5.94359 12.5639 4.21951 10.0049 4.2001C9.67489 4.19622 9.67489 3.69919 10.0049 3.69919C12.8668 3.7186 15.1694 5.69507 15.1966 9.10439ZM14.7578 12.9137V12.9214C14.3384 13.6592 13.5541 14.4746 12.7464 14.2145L12.7386 14.2028C11.9193 13.9737 9.98941 12.9797 8.77013 12.0089C8.14108 11.5119 7.56639 10.9255 7.12372 10.3625C6.72377 9.86159 6.31993 9.26748 5.92774 8.553C5.10065 7.05802 4.91815 6.39014 4.91815 6.39014C4.65798 5.58247 5.46954 4.79809 6.21121 4.37872H6.21897C6.57621 4.19233 6.91792 4.25446 7.14702 4.53016C7.14702 4.53016 7.62852 5.10485 7.83432 5.38831C8.02847 5.65236 8.28864 6.07561 8.42454 6.31248C8.66141 6.73573 8.51385 7.16675 8.28087 7.34537L7.8149 7.71814C7.57804 7.90841 7.6091 8.26177 7.6091 8.26177C7.6091 8.26177 8.30029 10.8751 10.8825 11.5352C10.8825 11.5352 11.2359 11.5662 11.4261 11.3294L11.7989 10.8634C11.9775 10.6304 12.4086 10.4829 12.8318 10.7197C13.4026 11.042 14.1287 11.5429 14.6102 11.9973C14.8821 12.2186 14.9442 12.5564 14.7578 12.9137Z" fill="#75787A"/>
</svg>
