<svg width="21" height="21" viewBox="0 0 21 21" fill="none" xmlns="http://www.w3.org/2000/svg">
<path d="M10.7125 4.95404C7.87414 4.95404 5.58472 7.24345 5.58472 10.0818C5.58472 12.9201 7.87414 15.2095 10.7125 15.2095C13.5508 15.2095 15.8402 12.9201 15.8402 10.0818C15.8402 7.24345 13.5508 4.95404 10.7125 4.95404ZM10.7125 13.4155C8.87826 13.4155 7.37876 11.9205 7.37876 10.0818C7.37876 8.24312 8.8738 6.74808 10.7125 6.74808C12.5511 6.74808 14.0462 8.24312 14.0462 10.0818C14.0462 11.9205 12.5467 13.4155 10.7125 13.4155ZM17.246 4.74429C17.246 5.40924 16.7105 5.94032 16.05 5.94032C15.385 5.94032 14.8539 5.40478 14.8539 4.74429C14.8539 4.0838 15.3895 3.54826 16.05 3.54826C16.7105 3.54826 17.246 4.0838 17.246 4.74429ZM20.6422 5.95817C20.5663 4.35603 20.2004 2.93686 19.0266 1.76761C17.8574 0.598355 16.4382 0.232406 14.8361 0.152076C13.1849 0.0583575 8.23562 0.0583575 6.58439 0.152076C4.98671 0.227944 3.56754 0.593892 2.39383 1.76314C1.22011 2.9324 0.858627 4.35156 0.778297 5.9537C0.684578 7.60494 0.684578 12.5542 0.778297 14.2054C0.854164 15.8075 1.22011 17.2267 2.39383 18.396C3.56754 19.5652 4.98225 19.9312 6.58439 20.0115C8.23562 20.1052 13.1849 20.1052 14.8361 20.0115C16.4382 19.9356 17.8574 19.5697 19.0266 18.396C20.1959 17.2267 20.5619 15.8075 20.6422 14.2054C20.7359 12.5542 20.7359 7.6094 20.6422 5.95817ZM18.509 15.9771C18.1609 16.8518 17.487 17.5257 16.6078 17.8783C15.2913 18.4004 12.1673 18.2799 10.7125 18.2799C9.2576 18.2799 6.12918 18.396 4.81712 17.8783C3.94242 17.5302 3.26853 16.8563 2.91597 15.9771C2.39383 14.6606 2.51432 11.5367 2.51432 10.0818C2.51432 8.62692 2.39829 5.4985 2.91597 4.18644C3.26407 3.31173 3.93795 2.63785 4.81712 2.28529C6.13365 1.76314 9.2576 1.88364 10.7125 1.88364C12.1673 1.88364 15.2958 1.76761 16.6078 2.28529C17.4825 2.63339 18.1564 3.30727 18.509 4.18644C19.0311 5.50296 18.9106 8.62692 18.9106 10.0818C18.9106 11.5367 19.0311 14.6651 18.509 15.9771Z" fill="#75787A"/>
</svg>
