<svg width="21" height="21" viewBox="0 0 21 21" fill="none" xmlns="http://www.w3.org/2000/svg">
<path d="M17.4891 3.0225C15.6277 1.15661 13.1487 0.130371 10.5142 0.130371C5.0765 0.130371 0.65167 4.5552 0.65167 9.99294C0.65167 11.73 1.10482 13.4271 1.96668 14.9242L0.567261 20.0332L5.7962 18.6604C7.2356 19.4468 8.85715 19.86 10.5098 19.86H10.5142C15.9475 19.86 20.4701 15.4351 20.4701 9.99738C20.4701 7.36292 19.3506 4.88839 17.4891 3.0225ZM10.5142 18.1984C9.0393 18.1984 7.59545 17.803 6.3382 17.0567L6.04054 16.879L2.93961 17.692L3.76593 14.6666L3.57046 14.3556C2.74858 13.0494 2.31764 11.5434 2.31764 9.99294C2.31764 5.47482 5.99612 1.79635 10.5187 1.79635C12.7089 1.79635 14.7658 2.64932 16.3118 4.19979C17.8579 5.75026 18.8086 7.80718 18.8041 9.99738C18.8041 14.5199 15.0324 18.1984 10.5142 18.1984ZM15.0101 12.0587C14.7658 11.9344 13.553 11.339 13.3264 11.2591C13.0998 11.1747 12.9355 11.1347 12.7711 11.3835C12.6067 11.6323 12.1358 12.1831 11.9892 12.352C11.847 12.5163 11.7004 12.5385 11.4561 12.4142C10.0078 11.69 9.05707 11.1214 8.10191 9.48204C7.84868 9.04667 8.35514 9.07776 8.82605 8.13593C8.90602 7.97156 8.86603 7.82939 8.80384 7.705C8.74164 7.58061 8.24851 6.36778 8.04415 5.87465C7.84424 5.39485 7.63988 5.46149 7.48883 5.4526C7.34667 5.44372 7.18229 5.44372 7.01791 5.44372C6.85354 5.44372 6.58698 5.50592 6.36041 5.75026C6.13384 5.99904 5.49854 6.59435 5.49854 7.80718C5.49854 9.02001 6.38262 10.1929 6.50257 10.3572C6.62697 10.5216 8.23963 13.0095 10.7142 14.0801C12.2779 14.7554 12.891 14.8132 13.6729 14.6977C14.1483 14.6266 15.1301 14.1023 15.3345 13.5248C15.5388 12.9473 15.5388 12.4541 15.4766 12.352C15.4189 12.2409 15.2545 12.1787 15.0101 12.0587Z" fill="#75787A"/>
</svg>
