<svg width="13" height="13" viewBox="0 0 13 13" fill="none" xmlns="http://www.w3.org/2000/svg">
<path d="M7.53475 1.35742L8.63543 3.33752C8.78624 3.60931 9.16473 3.86751 9.47599 3.90241L11.3287 4.13409C12.515 4.27987 12.8209 5.11737 12.0136 5.9946L10.6382 7.48072C10.4086 7.72977 10.2894 8.20488 10.3816 8.53098L10.8635 10.2806C11.2426 11.662 10.5217 12.2345 9.25497 11.556L7.48535 10.608C7.16306 10.4347 6.65112 10.4599 6.34834 10.6545L4.66373 11.7392C3.45779 12.5146 2.69041 12.0041 2.95503 10.5977L3.29388 8.81781C3.35714 8.4851 3.20547 8.02081 2.95512 7.7924L1.45304 6.42194C0.576417 5.61584 0.812221 4.75669 1.98036 4.51311L3.80432 4.1341C4.11214 4.06758 4.46887 3.78688 4.59411 3.50128L5.52858 1.43443C6.03936 0.320848 6.9405 0.28576 7.53475 1.35742Z" fill="#B8B8B8"/>
</svg>
