<svg width="85" height="23" viewBox="0 0 85 23" fill="none" xmlns="http://www.w3.org/2000/svg">
<path d="M16.8058 18.1044V18.1643H16.8657H22.8605C23.1585 18.1643 23.4 18.4059 23.4 18.7039V21.4824C23.4 21.7804 23.1585 22.0219 22.8605 22.0219H13.9283C13.6303 22.0219 13.3887 21.7804 13.3887 21.4824V1.07921C13.3887 0.78124 13.6303 0.539684 13.9283 0.539684H22.8605C23.1585 0.539684 23.4 0.78124 23.4 1.07921V3.95671C23.4 4.25468 23.1585 4.49624 22.8605 4.49624H16.8657H16.8058V4.55619V9.23211V9.29206H16.8657H21.3019C21.5998 9.29206 21.8414 9.53362 21.8414 9.83159V12.3494C21.8414 12.6474 21.5998 12.8889 21.3019 12.8889H16.8657H16.8058V12.9489V18.1044Z" fill="#DC332E" stroke="black" stroke-width="0.119896"/>
<path d="M39.6458 21.4615C39.6458 21.7594 39.4042 22.001 39.1063 22.001H36.7084C36.4104 22.001 36.1688 21.7594 36.1688 21.4615V10.9815C36.1688 10.7631 35.8529 10.7335 35.8123 10.9481L33.8043 21.5618C33.7561 21.8165 33.5335 22.001 33.2742 22.001H32.3473H31.4524C31.1922 22.001 30.969 21.8152 30.9218 21.5593L28.9721 10.982C28.9324 10.7667 28.6154 10.7957 28.6154 11.0146V21.4615C28.6154 21.7594 28.3738 22.001 28.0759 22.001H25.7379C25.4399 22.001 25.1984 21.7594 25.1984 21.4615V1.07921C25.1984 0.78124 25.4399 0.539684 25.7379 0.539684H29.3798C29.6382 0.539684 29.8604 0.722905 29.9095 0.976595L32.2169 12.8868C32.2545 13.0805 32.5315 13.0812 32.5699 12.8876L34.9329 0.974244C34.983 0.721659 35.2046 0.539684 35.4621 0.539684H39.1063C39.4042 0.539684 39.6458 0.781239 39.6458 1.07921V21.4615Z" fill="#DC332E" stroke="black" stroke-width="0.119896"/>
<path d="M53.6284 9.16381V9.16397L53.6327 9.16365C54.067 9.13211 54.3787 8.898 54.58 8.58733C54.7804 8.27817 54.8726 7.89207 54.8726 7.54673V5.75003C54.8726 5.53141 54.8105 5.20447 54.6243 4.93029C54.4359 4.65295 54.1218 4.4324 53.6284 4.4324H51.7553C51.656 4.4324 51.5755 4.51292 51.5755 4.61224V8.98396C51.5755 9.08329 51.656 9.16381 51.7553 9.16381H53.6284ZM58.949 17.1778C58.949 17.4239 58.9544 17.6657 58.9596 17.9023C58.9682 18.2928 58.9765 18.6694 58.9601 19.0292C58.9337 19.6047 58.844 20.123 58.595 20.5596C58.1006 21.4267 56.9585 22.001 54.3157 22.001H48.8179C48.5199 22.001 48.2783 21.7594 48.2783 21.4615V1.07921C48.2783 0.78124 48.5199 0.539684 48.8179 0.539684H53.8857C55.9023 0.539684 57.0101 0.960921 57.6179 1.68238C58.2277 2.40619 58.3487 3.44776 58.3487 4.72941V7.3819C58.3487 8.58722 57.9297 9.6586 56.8318 10.5764C56.7144 10.6746 56.7612 10.8676 56.9075 10.9049C57.9352 11.1668 58.4399 11.6619 58.6926 12.2882C58.9482 12.9218 58.949 13.6957 58.949 14.5253V17.1778ZM53.3139 18.267C53.7041 18.267 54.0354 18.2574 54.3124 18.2246C54.589 18.1918 54.8158 18.1354 54.995 18.0394C55.1758 17.9425 55.3063 17.806 55.3904 17.6178C55.4738 17.4314 55.5103 17.1975 55.5103 16.9069V14.2544C55.5103 13.6737 55.379 13.2607 55.0248 12.998C54.6762 12.7395 54.1245 12.6373 53.3139 12.6373H51.7553C51.656 12.6373 51.5755 12.7178 51.5755 12.8171V18.0872C51.5755 18.1865 51.656 18.267 51.7553 18.267H53.3139Z" fill="#DC332E" stroke="black" stroke-width="0.119896"/>
<path d="M68.7206 0.539684H71.2384C71.5364 0.539684 71.778 0.781239 71.778 1.07921V17.6186C71.778 19.2573 71.6258 20.3408 70.8777 21.0225C70.5033 21.3637 69.9745 21.6088 69.2269 21.7683C68.4791 21.9279 67.5163 22.001 66.278 22.001C63.902 22.001 62.5258 21.7071 61.7406 21.0216C60.9588 20.3392 60.7476 19.2543 60.7476 17.6186V1.07921C60.7476 0.78124 60.9891 0.539684 61.2871 0.539684H63.685C63.983 0.539684 64.2245 0.78124 64.2245 1.07921V17.0223C64.2245 17.3026 64.2875 17.519 64.4036 17.6842C64.5197 17.8493 64.6848 17.9573 64.8784 18.0282C65.2594 18.1675 65.7664 18.1675 66.2694 18.1675H66.278C66.8051 18.1675 67.2777 18.1142 67.6202 17.9453C67.7926 17.8603 67.9338 17.7451 68.0315 17.5915C68.1293 17.4377 68.1811 17.2494 68.1811 17.0223V1.07921C68.1811 0.78124 68.4227 0.539684 68.7206 0.539684Z" fill="#DC332E" stroke="black" stroke-width="0.119896"/>
<path d="M3.97697 16.9656H3.97676L3.97718 16.9706C4.01024 17.3674 4.32587 17.5898 4.70805 17.7121C5.09181 17.8349 5.56398 17.8648 5.95525 17.8648C6.43107 17.8648 6.91029 17.8605 7.26938 17.6937C7.45149 17.6091 7.60409 17.4824 7.71035 17.294C7.81614 17.1065 7.87358 16.8622 7.87358 16.546V14.8366C7.87358 14.6756 7.80512 14.5331 7.68767 14.3965C7.57108 14.2609 7.40293 14.1273 7.19606 13.9825C7.04443 13.8765 6.86937 13.7626 6.67549 13.6366C6.6046 13.5905 6.53119 13.5428 6.4555 13.4932C6.1721 13.3076 5.85469 13.0948 5.5113 12.8409C4.8752 12.3708 4.30605 11.9941 3.80294 11.6612C3.63488 11.55 3.4742 11.4437 3.32084 11.3403C2.70711 10.9269 2.21157 10.5622 1.82181 10.1241C1.04632 9.25241 0.679843 8.07868 0.679843 5.61534V3.95692C0.679843 1.92404 1.12858 0.966076 2.00119 0.502932C2.44212 0.268906 2.99765 0.157333 3.67411 0.105099C4.27437 0.0587492 4.96436 0.059395 5.74759 0.0601281C5.84694 0.0602211 5.94778 0.0603155 6.05014 0.0603156C6.82156 0.060316 7.52361 0.0603782 8.14451 0.123689C8.76531 0.18699 9.2996 0.313106 9.73664 0.561921C10.6034 1.05541 11.1108 2.04628 11.1108 4.07602V7.48525V8.57205C11.1108 8.9955 10.6453 9.2539 10.2859 9.02995L8.00787 7.61037C7.84977 7.51185 7.75368 7.33875 7.75368 7.15247V4.9161C7.75368 4.65127 7.58919 4.36509 7.2785 4.14762C6.96677 3.9294 6.50451 3.77709 5.8953 3.77709C5.256 3.77709 4.83582 3.9397 4.57459 4.16671C4.31327 4.39381 4.21676 4.68055 4.21676 4.9161V6.23495C4.21676 6.94636 4.55487 7.46824 5.00341 7.8789C5.37679 8.22074 5.83119 8.48927 6.23447 8.7276C6.3132 8.77413 6.38997 8.8195 6.46382 8.86404C6.63206 8.96552 6.79512 9.06348 6.95314 9.1584C7.68294 9.59683 8.30513 9.9706 8.83347 10.3283C9.47579 10.7633 9.97555 11.172 10.3574 11.6399C11.1186 12.5724 11.4204 13.7511 11.4204 15.874L11.4204 17.412L11.4204 17.4133C11.4478 18.7062 11.2978 19.6186 11.0229 20.2623C10.7488 20.9037 10.3502 21.2798 9.87413 21.5011C9.39549 21.7237 8.83453 21.7917 8.23328 21.8083C7.94622 21.8162 7.65159 21.8124 7.35334 21.8085L7.31198 21.808C7.00009 21.804 6.68462 21.8005 6.37284 21.8112C5.0321 21.857 3.9986 21.8093 3.2023 21.6612C2.4062 21.5131 1.85145 21.2655 1.4638 20.9148C0.688842 20.2137 0.559951 19.0813 0.559954 17.412V14.0028V13.3687C0.559952 12.9324 1.04795 12.6736 1.40913 12.9185L3.68759 14.4632C3.86858 14.5859 3.97697 14.7904 3.97697 15.009V16.9656Z" fill="#DC332E" stroke="black" stroke-width="0.119896"/>
<path d="M76.9933 17.2077H76.9931L76.9935 17.2127C77.0267 17.6049 77.3429 17.8241 77.7246 17.9446C78.1083 18.0656 78.5804 18.0951 78.9716 18.0951C79.4475 18.0951 79.9265 18.0908 80.2854 17.9265C80.4675 17.8431 80.6201 17.7182 80.7265 17.5322C80.8325 17.3471 80.8899 17.1059 80.8899 16.7939V15.1085C80.8899 14.9492 80.8212 14.8084 80.7038 14.6737C80.5871 14.5399 80.4189 14.4082 80.2121 14.2655C80.0605 14.1609 79.8854 14.0486 79.6915 13.9244C79.6206 13.8789 79.5472 13.8319 79.4715 13.783C79.1881 13.6 78.8707 13.3901 78.5273 13.1399C77.8912 12.6763 77.3221 12.3049 76.819 11.9767C76.6509 11.867 76.4902 11.7622 76.3369 11.6603C75.7231 11.2526 75.2276 10.893 74.8379 10.4611C74.0626 9.6019 73.6962 8.44502 73.6962 6.01641V4.38123C73.6962 2.37723 74.1447 1.43312 75.0172 0.976527C75.4583 0.745737 76.0139 0.635712 76.6904 0.584205C77.2907 0.538502 77.9807 0.539139 78.7639 0.539862C78.8633 0.539954 78.9641 0.540047 79.0665 0.540047C79.8379 0.540047 80.54 0.540108 81.161 0.602537C81.7818 0.664958 82.3162 0.789327 82.7533 1.03469C83.62 1.52121 84.1271 2.4978 84.1271 4.49865V7.86012V8.92456C84.1271 9.34648 83.6646 9.60513 83.3051 9.38425L81.0271 7.98455C80.8674 7.8864 80.77 7.71235 80.77 7.52486V5.32696C80.77 5.06511 80.6051 4.7827 80.2945 4.56833C79.9828 4.3532 79.5207 4.20307 78.9117 4.20307C78.2725 4.20307 77.8525 4.36334 77.5913 4.58717C77.3299 4.81116 77.2331 5.09418 77.2331 5.32696V6.62734C77.2331 7.32942 77.5716 7.84427 78.0201 8.24916C78.3935 8.58622 78.8479 8.851 79.2512 9.08599C79.3299 9.13186 79.4067 9.17659 79.4805 9.22051C79.6487 9.32056 79.8118 9.41714 79.9698 9.51073C80.6996 9.94301 81.3218 10.3116 81.8501 10.6643C82.4925 11.0931 82.9922 11.4962 83.374 11.9574C84.135 12.8766 84.4368 14.0384 84.4368 16.1314L84.4368 17.6479L84.4368 17.6491C84.4642 18.9238 84.3142 19.8231 84.0393 20.4575C83.7655 21.0897 83.367 21.4605 82.8908 21.6788C82.412 21.8982 81.851 21.9653 81.2497 21.9817C80.9625 21.9895 80.6678 21.9857 80.3695 21.9819L80.3283 21.9814C80.0164 21.9774 79.701 21.974 79.3892 21.9845C78.0485 22.0297 77.0149 21.9826 76.2185 21.8366C75.4223 21.6906 74.8675 21.4464 74.4798 21.1006C73.7052 20.4096 73.5763 19.2937 73.5763 17.6479V14.2864V13.6612C73.5763 13.2294 74.0578 12.9721 74.4167 13.2121L76.7004 14.7386C76.8834 14.861 76.9933 15.0667 76.9933 15.2869V17.2077Z" fill="#DC332E" stroke="black" stroke-width="0.119896"/>
</svg>
