<svg width="26" height="23" viewBox="0 0 26 23" fill="none" xmlns="http://www.w3.org/2000/svg">
<path d="M1.39796 4.08159H24.7449C25.2409 4.08159 25.6429 3.67958 25.6429 3.18363V0.938731C25.6429 0.442777 25.2409 0.0407715 24.7449 0.0407715H1.39796C0.902005 0.0407715 0.5 0.442777 0.5 0.938731V3.18363C0.5 3.67958 0.902005 4.08159 1.39796 4.08159ZM1.39796 13.0612H24.7449C25.2409 13.0612 25.6429 12.6592 25.6429 12.1632V9.91832C25.6429 9.42237 25.2409 9.02036 24.7449 9.02036H1.39796C0.902005 9.02036 0.5 9.42237 0.5 9.91832V12.1632C0.5 12.6592 0.902005 13.0612 1.39796 13.0612ZM1.39796 22.0408H24.7449C25.2409 22.0408 25.6429 21.6388 25.6429 21.1428V18.8979C25.6429 18.402 25.2409 18 24.7449 18H1.39796C0.902005 18 0.5 18.402 0.5 18.8979V21.1428C0.5 21.6388 0.902005 22.0408 1.39796 22.0408Z" fill="#E9243B"/>
</svg>
