<svg width="18" height="19" viewBox="0 0 18 19" fill="none" xmlns="http://www.w3.org/2000/svg">
<path d="M12.4118 9.04077L17.529 3.92355C18.157 3.2956 18.157 2.27748 17.529 1.64901L16.3918 0.511737C15.7638 -0.116217 14.7457 -0.116217 14.1172 0.511737L9 5.62895L3.88278 0.511737C3.25483 -0.116217 2.2367 -0.116217 1.60824 0.511737L0.470966 1.64901C-0.156989 2.27696 -0.156989 3.29509 0.470966 3.92355L5.58818 9.04077L0.470966 14.158C-0.156989 14.7859 -0.156989 15.8041 0.470966 16.4325L1.60824 17.5698C2.23619 18.1978 3.25483 18.1978 3.88278 17.5698L9 12.4526L14.1172 17.5698C14.7452 18.1978 15.7638 18.1978 16.3918 17.5698L17.529 16.4325C18.157 15.8046 18.157 14.7865 17.529 14.158L12.4118 9.04077Z" fill="#E9243B"/>
</svg>
