<svg width="511" height="511" viewBox="0 0 511 511" fill="none" xmlns="http://www.w3.org/2000/svg">
<ellipse cx="473.642" cy="373.236" rx="33.9273" ry="33.917" fill="url(#paint0_linear_178_2642)"/>
<g filter="url(#filter0_b_178_2642)">
<path d="M472.017 255.129C472.017 374.817 374.958 471.863 255.206 471.863C135.454 471.863 38.3951 374.817 38.3951 255.129C38.3951 135.441 135.454 38.3951 255.206 38.3951C374.958 38.3951 472.017 135.441 472.017 255.129Z" stroke="url(#paint1_radial_178_2642)" stroke-width="76.7901"/>
</g>
<ellipse cx="83.0079" cy="187.163" rx="47.5924" ry="47.5781" fill="white"/>
<g filter="url(#filter1_dd_178_2642)">
<rect x="48.6091" y="49.1394" width="42.2346" height="42.2346" rx="21.1173" fill="white"/>
<path d="M61.4072 78.0608H78.0451" stroke="#E9243B" stroke-width="0.959877"/>
<path d="M59.9011 79.086C59.7761 79.2076 59.7761 79.4047 59.9011 79.5262C60.026 79.6478 60.2286 79.6478 60.3536 79.5262L59.9011 79.086ZM64.833 75.1679C64.9579 75.0463 64.9579 74.8492 64.833 74.7276C64.7081 74.6061 64.5055 74.6061 64.3805 74.7276L64.833 75.1679ZM60.3536 79.5262L64.833 75.1679L64.3805 74.7276L59.9011 79.086L60.3536 79.5262Z" fill="#73101C"/>
<path d="M59.9011 79.086C59.7761 79.2076 59.7761 79.4047 59.9011 79.5262C60.026 79.6478 60.2286 79.6478 60.3536 79.5262L59.9011 79.086ZM64.833 75.1679C64.9579 75.0463 64.9579 74.8492 64.833 74.7276C64.7081 74.6061 64.5055 74.6061 64.3805 74.7276L64.833 75.1679ZM60.3536 79.5262L64.833 75.1679L64.3805 74.7276L59.9011 79.086L60.3536 79.5262Z" fill="#73101C"/>
<path d="M79.5513 79.086C79.6762 79.2076 79.6762 79.4047 79.5513 79.5262C79.4263 79.6478 79.2237 79.6478 79.0987 79.5262L79.5513 79.086ZM74.6193 75.1679C74.4944 75.0463 74.4944 74.8492 74.6193 74.7276C74.7443 74.6061 74.9469 74.6061 75.0719 74.7276L74.6193 75.1679ZM79.0987 79.5262L74.6193 75.1679L75.0719 74.7276L79.5513 79.086L79.0987 79.5262Z" fill="#73101C"/>
<path d="M79.5513 79.086C79.6762 79.2076 79.6762 79.4047 79.5513 79.5262C79.4263 79.6478 79.2237 79.6478 79.0987 79.5262L79.5513 79.086ZM74.6193 75.1679C74.4944 75.0463 74.4944 74.8492 74.6193 74.7276C74.7443 74.6061 74.9469 74.6061 75.0719 74.7276L74.6193 75.1679ZM79.0987 79.5262L74.6193 75.1679L75.0719 74.7276L79.5513 79.086L79.0987 79.5262Z" fill="#73101C"/>
<path fill-rule="evenodd" clip-rule="evenodd" d="M65.2467 61.4072C65.46 61.2958 65.9506 60.9396 66.2066 60.4052C66.5266 59.7373 66.8465 59.4033 67.8064 59.4033H69.0862H71.006C71.9659 59.4033 72.2858 59.7373 72.6058 60.4052C72.8618 60.9396 73.3524 61.2958 73.5657 61.4072H75.4854C76.5457 61.4072 77.4052 62.2434 77.4052 63.275V71.2117C77.4052 74.6504 74.5401 77.4379 71.006 77.4379H67.8064C64.2722 77.4379 61.4072 74.6504 61.4072 71.2117V63.275C61.4072 62.2434 62.2667 61.4072 63.327 61.4072H65.2467Z" fill="black"/>
<path d="M71.0065 61.2713C71.0065 61.1975 70.9597 61.122 70.8869 61.0494C70.5179 60.6815 69.9351 60.6487 69.4067 60.6487C68.8783 60.6487 68.2746 60.6527 67.9173 61.0315C67.8498 61.1031 67.8069 61.183 67.8069 61.2713C67.8069 61.5826 67.8069 61.8939 68.2068 61.8939H70.6065C71.0065 61.8939 71.0065 61.5826 71.0065 61.2713Z" fill="white"/>
<path d="M63.9675 64.9855C63.9675 64.2977 64.5405 63.7402 65.2474 63.7402H73.5663C74.2731 63.7402 74.8461 64.2977 74.8461 64.9855V67.476C74.8461 69.5392 73.1271 71.2117 71.0066 71.2117H67.807C65.6865 71.2117 63.9675 69.5392 63.9675 67.476V64.9855Z" fill="white"/>
<mask id="mask0_178_2642" style="mask-type:alpha" maskUnits="userSpaceOnUse" x="63" y="63" width="12" height="9">
<path d="M63.9675 64.9855C63.9675 64.2977 64.5405 63.7402 65.2474 63.7402H73.5663C74.2731 63.7402 74.8461 64.2977 74.8461 64.9855V67.476C74.8461 69.5392 73.1271 71.2117 71.0066 71.2117H67.807C65.6865 71.2117 63.9675 69.5392 63.9675 67.476V64.9855Z" fill="white"/>
</mask>
<g mask="url(#mask0_178_2642)">
<path d="M73.886 64.6742C73.886 63.927 72.7128 63.7402 71.9663 63.7402H74.8459L74.8458 71.523C72.7128 71.6268 66.7829 71.523 67.8067 71.523C69.0866 71.523 71.3263 70.5891 72.2862 69.9665C73.1643 69.3969 73.886 68.4099 73.886 67.476V64.6742Z" fill="#C3D3DB"/>
</g>
</g>
<defs>
<filter id="filter0_b_178_2642" x="-9.59877" y="-9.59877" width="529.61" height="529.455" filterUnits="userSpaceOnUse" color-interpolation-filters="sRGB">
<feFlood flood-opacity="0" result="BackgroundImageFix"/>
<feGaussianBlur in="BackgroundImageFix" stdDeviation="4.79938"/>
<feComposite in2="SourceAlpha" operator="in" result="effect1_backgroundBlur_178_2642"/>
<feBlend mode="normal" in="SourceGraphic" in2="effect1_backgroundBlur_178_2642" result="shape"/>
</filter>
<filter id="filter1_dd_178_2642" x="33.2511" y="41.4604" width="72.9507" height="72.9507" filterUnits="userSpaceOnUse" color-interpolation-filters="sRGB">
<feFlood flood-opacity="0" result="BackgroundImageFix"/>
<feColorMatrix in="SourceAlpha" type="matrix" values="0 0 0 0 0 0 0 0 0 0 0 0 0 0 0 0 0 0 127 0" result="hardAlpha"/>
<feOffset dy="7.67901"/>
<feGaussianBlur stdDeviation="7.67901"/>
<feColorMatrix type="matrix" values="0 0 0 0 0.376471 0 0 0 0 0.380392 0 0 0 0 0.439216 0 0 0 0.16 0"/>
<feBlend mode="normal" in2="BackgroundImageFix" result="effect1_dropShadow_178_2642"/>
<feColorMatrix in="SourceAlpha" type="matrix" values="0 0 0 0 0 0 0 0 0 0 0 0 0 0 0 0 0 0 127 0" result="hardAlpha"/>
<feOffset dy="1.91975"/>
<feGaussianBlur stdDeviation="1.91975"/>
<feColorMatrix type="matrix" values="0 0 0 0 0.156863 0 0 0 0 0.160784 0 0 0 0 0.239216 0 0 0 0.04 0"/>
<feBlend mode="normal" in2="effect1_dropShadow_178_2642" result="effect2_dropShadow_178_2642"/>
<feBlend mode="normal" in="SourceGraphic" in2="effect2_dropShadow_178_2642" result="shape"/>
</filter>
<linearGradient id="paint0_linear_178_2642" x1="507.569" y1="407.153" x2="439.735" y2="339.298" gradientUnits="userSpaceOnUse">
<stop stop-color="#A4A4A4"/>
<stop offset="0.703125" stop-color="#EED0D4"/>
</linearGradient>
<radialGradient id="paint1_radial_178_2642" cx="0" cy="0" r="1" gradientUnits="userSpaceOnUse" gradientTransform="translate(248.028 266.291) rotate(88.7893) scale(339.716 339.819)">
<stop offset="0.654764" stop-color="#FF445A"/>
<stop offset="1" stop-color="#73101C"/>
</radialGradient>
</defs>
</svg>
